#N canvas 305 438 159 176 10;
#X obj 20 20 inlet~;
#X obj 20 86 /~;
#X obj 35 64 abs~;
#X obj 20 108 +~ 1;
#X obj 20 130 min~ 1;
#X obj 20 152 outlet~;
#X obj 65 20 inlet~;
#X obj 20 42 -~, f 8;
#X connect 0 0 7 0;
#X connect 1 0 3 0;
#X connect 2 0 1 1;
#X connect 3 0 4 0;
#X connect 4 0 5 0;
#X connect 6 0 7 1;
#X connect 7 0 2 0;
#X connect 7 0 1 0;
