#N canvas 305 438 132 187 10;
#X obj 20 20 inlet~;
#X obj 20 42 -~ \$1, f 8;
#X obj 65 20 inlet;
#X obj 20 86 /~;
#X obj 35 64 abs~;
#X obj 20 108 max~ 0;
#X obj 20 130 outlet~;
#X connect 0 0 1 0;
#X connect 1 0 4 0;
#X connect 1 0 3 0;
#X connect 2 0 1 1;
#X connect 3 0 5 0;
#X connect 4 0 3 1;
#X connect 5 0 6 0;
