#N canvas 249 391 187 199 10;
#X obj 11 96 sig~ 1;
#X obj 11 118 rpole~ 1;
#X obj 11 140 -~ 1;
#X obj 11 162 outlet~;
#X obj 61 52 bang~;
#X obj 100 8 loadbang;
#X obj 100 30 f \$1;
#X obj 100 52 != 0;
#X obj 61 74 spigot, f 7;
#X msg 61 96 clear;
#X obj 111 74 inlet;
#X connect 0 0 1 0;
#X connect 1 0 2 0;
#X connect 2 0 3 0;
#X connect 4 0 8 0;
#X connect 5 0 6 0;
#X connect 6 0 7 0;
#X connect 7 0 8 1;
#X connect 8 0 9 0;
#X connect 9 0 1 0;
#X connect 10 0 9 0;
