#N canvas 78 527 468 320 10;
#X obj 271 233 /~;
#X obj 271 255 expr~ acos($v1);
#X text 39 11 Cartesian coordinates to spherical coordinates;
#X obj 41 123 inlet~ abscissa x;
#X obj 154 123 inlet~ ordinate y;
#X obj 271 123 inlet~ height z;
#X obj 41 155 *~;
#X obj 154 155 *~;
#X obj 281 155 *~;
#X obj 41 187 sqrt~;
#X text 39 75 The abstraction outputs the signals of the angles (azimuth
and elevation) divided by 2π like for the output signal of the vanilla
cos~ object.;
#X obj 41 301 outlet~ radius r;
#X text 39 31 r = √(x*x+y*y+z*z);
#X obj 154 204 expr~ atan2($v2 \, $v1);
#X text 39 45 θ = atan2(y \, x);
#X text 39 59 ϕ = acos(z/r);
#X obj 154 301 outlet~ azimuth θ;
#X obj 271 301 outlet~ elevation ϕ;
#X obj 154 226 /~ 6.28319;
#X obj 271 277 /~ 6.28319;
#X connect 0 0 1 0;
#X connect 1 0 19 0;
#X connect 3 0 6 0;
#X connect 3 0 6 1;
#X connect 3 0 13 0;
#X connect 4 0 7 0;
#X connect 4 0 7 1;
#X connect 4 0 13 1;
#X connect 5 0 0 0;
#X connect 5 0 8 0;
#X connect 5 0 8 1;
#X connect 6 0 9 0;
#X connect 7 0 9 0;
#X connect 8 0 9 0;
#X connect 9 0 11 0;
#X connect 9 0 0 1;
#X connect 13 0 18 0;
#X connect 18 0 16 0;
#X connect 19 0 17 0;
