#N canvas 659 172 389 229 10;
#X obj 9 108 nbx 5 14 -1e+37 1e+37 0 0 empty empty empty 0 -8 0 10
-262144 -1 -1 0 256;
#N canvas 453 247 450 300 nbx~ 0;
#X obj 100 78 snapshot~;
#X obj 100 56 inlet~;
#X obj 100 100 nbx 5 14 -1e+37 1e+37 0 0 \$0-dummys \$0-dummyr empty
0 -8 0 10 -262144 -1 -1 0 256;
#X obj 182 32 loadbang;
#X obj 182 54 metro 100;
#X connect 0 0 2 0;
#X connect 1 0 0 0;
#X connect 3 0 4 0;
#X connect 4 0 0 0;
#X coords 0 -1 1 1 54 14 2 100 100;
#X restore 9 180 pd nbx~;
#N canvas 0 22 450 300 header 1;
#X text 111 12 by Pierre Guillot - 2016;
#X obj 11 11 cnv 15 65 18 empty empty cartosphe~ 2 8 0 14 -262144 -66577
0;
#X coords 0 -1 1 1 253 20 2 10 10;
#X restore 9 7 pd header;
#N canvas 453 247 450 300 nbx~ 0;
#X obj 100 78 snapshot~;
#X obj 100 56 inlet~;
#X obj 100 100 nbx 5 14 -1e+37 1e+37 0 0 \$0-dummys \$0-dummyr empty
0 -8 0 10 -262144 -1 -1 0 256;
#X obj 182 32 loadbang;
#X obj 182 54 metro 100;
#X connect 0 0 2 0;
#X connect 1 0 0 0;
#X connect 3 0 4 0;
#X connect 4 0 0 0;
#X coords 0 -1 1 1 54 14 2 100 100;
#X restore 70 180 pd nbx~;
#X obj 9 127 sig~;
#X obj 70 108 nbx 5 14 -1e+37 1e+37 0 0 empty empty empty 0 -8 0 10
-262144 -1 -1 0 256;
#X obj 70 127 sig~;
#X obj 132 108 nbx 5 14 -1e+37 1e+37 0 0 empty empty empty 0 -8 0 10
-262144 -1 -1 0 256;
#X obj 132 127 sig~;
#X obj 9 149 p.cartosphe~, f 21;
#X text 7 32 The abstraction converts cartesian coordinates to spherical
coordinates. The abstraction outputs the signals of the angles (azimuth
and elevation) divided by 2π like for the output signal of the vanilla
cos~ object.;
#X text 8 90 x;
#X text 69 90 y;
#X text 131 90 z;
#X text 8 195 r;
#X text 69 195 θ;
#X text 131 195 ϕ;
#N canvas 453 247 450 300 nbx~ 0;
#X obj 100 78 snapshot~;
#X obj 100 56 inlet~;
#X obj 100 100 nbx 5 14 -1e+37 1e+37 0 0 \$0-dummys \$0-dummyr empty
0 -8 0 10 -262144 -1 -1 0.25 256;
#X obj 182 32 loadbang;
#X obj 182 54 metro 100;
#X connect 0 0 2 0;
#X connect 1 0 0 0;
#X connect 3 0 4 0;
#X connect 4 0 0 0;
#X coords 0 -1 1 1 54 14 2 100 100;
#X restore 132 180 pd nbx~;
#X connect 0 0 4 0;
#X connect 4 0 9 0;
#X connect 5 0 6 0;
#X connect 6 0 9 1;
#X connect 7 0 8 0;
#X connect 8 0 9 2;
#X connect 9 0 1 0;
#X connect 9 1 3 0;
#X connect 9 2 17 0;
