#N canvas 363 473 207 192 10;
#X obj 20 20 inlet~;
#X obj 35 42 wrap~;
#X obj 20 64 -~;
#X obj 65 64 /~;
#X obj 80 42 abs~;
#X obj 20 130 outlet~;
#X obj 65 86 min~ 0;
#X obj 20 108 -~, f 8;
#X connect 0 0 1 0;
#X connect 0 0 2 0;
#X connect 0 0 4 0;
#X connect 0 0 3 0;
#X connect 1 0 2 1;
#X connect 2 0 7 0;
#X connect 3 0 6 0;
#X connect 4 0 3 1;
#X connect 6 0 7 1;
#X connect 7 0 5 0;
