#N canvas 410 290 363 139 10;
#X text 7 32 The abstraction interpolates between random values generated
at a given frequency., f 44;
#X obj 9 68 nbx 5 14 -1e+37 1e+37 0 0 empty empty empty 0 -8 0 10 -262144
-1 -1 0 256;
#X obj 9 87 p.rand~ 2;
#N canvas 453 247 450 300 nbx~ 0;
#X obj 100 78 snapshot~;
#X obj 100 56 inlet~;
#X obj 100 100 nbx 5 14 -1e+37 1e+37 0 0 \$0-dummys \$0-dummyr empty
0 -8 0 10 -262144 -1 -1 -0.156762 256;
#X obj 182 32 loadbang;
#X obj 182 54 metro 100;
#X connect 0 0 2 0;
#X connect 1 0 0 0;
#X connect 3 0 4 0;
#X connect 4 0 0 0;
#X coords 0 -1 1 1 54 14 2 100 100;
#X restore 9 110 pd nbx~;
#N canvas 0 22 450 300 header 0;
#X text 75 12 by Pierre Guillot - 2016;
#X obj 11 11 cnv 15 65 18 empty empty p.rand~ 2 8 0 14 -262144 -66577
0;
#X coords 0 -1 1 1 220 20 2 10 10;
#X restore 9 7 pd header;
#N canvas 453 247 450 300 nbx~ 0;
#X obj 100 78 snapshot~;
#X obj 100 56 inlet~;
#X obj 100 100 nbx 5 14 -1e+37 1e+37 0 0 \$0-dummys \$0-dummyr empty
0 -8 0 10 -262144 -1 -1 0.551344 256;
#X obj 182 32 loadbang;
#X obj 182 54 metro 100;
#X connect 0 0 2 0;
#X connect 1 0 0 0;
#X connect 3 0 4 0;
#X connect 4 0 0 0;
#X coords 0 -1 1 1 54 14 2 100 100;
#X restore 99 110 pd nbx~;
#X obj 99 65 sig~ 1;
#X obj 99 87 p.rand≈;
#X connect 1 0 2 0;
#X connect 2 0 3 0;
#X connect 6 0 7 0;
#X connect 7 0 5 0;
