#N canvas 220 138 302 255 10;
#X obj 18 75 samphold~;
#X obj 18 53 noise~;
#X obj 33 165 *~;
#X obj 18 120 samphold~, f 14;
#X obj 18 98 rzero_rev~ 0;
#X obj 18 188 +~;
#X obj 33 145 -~;
#X obj 99 8 inlet;
#X obj 99 31 phasor~ \$1;
#X obj 18 210 outlet~;
#X text 83 189 Pretty tricky isn't it ?;
#X connect 0 0 4 0;
#X connect 0 0 6 0;
#X connect 1 0 0 0;
#X connect 2 0 5 1;
#X connect 3 0 5 0;
#X connect 3 0 6 1;
#X connect 4 0 3 0;
#X connect 5 0 9 0;
#X connect 6 0 2 0;
#X connect 7 0 8 0;
#X connect 8 0 0 1;
#X connect 8 0 2 1;
#X connect 8 0 3 1;
